<?xml version="1.0" standalone="no"?>
<!DOCTYPE svg PUBLIC "-//W3C//DTD SVG 20010904//EN"
 "http://www.w3.org/TR/2001/REC-SVG-20010904/DTD/svg10.dtd">
<svg version="1.0" xmlns="http://www.w3.org/2000/svg"
 width="514.000000pt" height="314.000000pt" viewBox="0 0 514.000000 314.000000"
 preserveAspectRatio="xMidYMid meet">

<g transform="translate(0.000000,314.000000) scale(0.100000,-0.100000)"
fill="#000000" stroke="none">
<path d="M2658 2928 c-26 -21 -58 -81 -58 -109 0 -15 9 -38 21 -53 29 -37 21
-55 -41 -92 -81 -48 -120 -90 -164 -173 -36 -69 -38 -75 -21 -87 10 -7 43 -18
74 -24 127 -24 117 -28 -76 -29 -105 -1 -194 -5 -197 -9 -3 -5 25 -31 62 -59
280 -208 417 -263 652 -263 113 0 146 -12 64 -24 -71 -9 -187 -7 -267 5 -128
20 -219 64 -451 217 -281 186 -469 248 -843 274 l-162 11 -91 -73 c-50 -40
-89 -75 -86 -77 2 -3 48 1 101 7 224 27 428 -39 623 -199 58 -48 183 -194 318
-371 126 -166 248 -295 318 -335 27 -16 76 -39 110 -52 l61 -23 -51 6 -51 5
-12 -48 c-7 -26 -22 -58 -33 -70 l-21 -23 48 0 c27 0 46 -3 43 -6 -4 -3 -46
-14 -95 -25 -93 -20 -217 -74 -208 -90 4 -5 190 -9 456 -9 356 0 450 3 447 13
-6 17 -105 66 -151 73 -22 4 -49 19 -67 37 -33 33 -65 116 -56 145 3 10 36 35
72 56 36 21 95 66 130 102 66 66 61 56 229 409 38 79 93 148 136 170 15 8 54
15 87 15 119 0 192 -82 192 -217 0 -81 -20 -128 -69 -160 -41 -28 -82 -29
-138 -4 -53 25 -75 65 -81 153 -3 38 -9 68 -13 68 -15 0 -47 -61 -54 -100 -4
-25 -16 -44 -37 -60 -29 -21 -65 -86 -54 -98 4 -3 18 1 32 8 27 15 29 15 174
-46 53 -22 74 -26 122 -21 101 9 174 69 208 171 19 59 8 217 -20 291 -65 171
-246 236 -510 185 -120 -23 -177 -22 -229 5 -24 12 -34 30 -55 93 -43 129 -99
197 -218 266 -27 15 -48 33 -48 41 0 7 11 27 25 43 33 39 32 68 -5 125 -31 49
-45 56 -72 35z"/>
<path d="M1182 2831 c-17 -49 -14 -120 7 -166 l19 -40 0 95 c0 52 -3 106 -7
120 -7 25 -7 25 -19 -9z"/>
<path d="M1107 2751 c-31 -63 -34 -106 -11 -159 9 -20 19 -66 23 -102 l6 -65
20 55 c22 64 23 134 4 245 l-14 80 -28 -54z"/>
<path d="M160 978 c-6 -13 -42 -125 -80 -250 -39 -125 -73 -235 -76 -243 -6
-14 3 -16 61 -13 l68 3 17 50 17 50 68 0 68 0 17 -50 17 -50 76 -3 c67 -2 77
-1 77 14 0 9 -35 129 -77 265 l-77 249 -83 0 c-77 0 -84 -2 -93 -22z m95 -218
c9 -27 14 -54 10 -60 -10 -16 -65 -12 -65 5 0 25 24 105 31 105 4 0 15 -22 24
-50z"/>
<path d="M790 734 l0 -266 148 4 c165 4 202 16 259 82 42 47 58 98 58 186 0
65 -5 83 -31 129 -17 30 -48 67 -71 83 -35 26 -53 31 -139 38 -55 5 -127 9
-161 10 l-63 0 0 -266z m239 131 c46 -23 68 -100 51 -181 -13 -63 -45 -94 -96
-94 l-34 0 0 145 0 145 25 0 c15 0 39 -7 54 -15z"/>
<path d="M1550 735 l0 -265 195 0 195 0 0 60 0 60 -120 0 -120 0 0 45 0 45
100 0 100 0 0 60 0 59 -97 3 -98 3 0 35 0 35 118 3 117 3 0 59 0 60 -195 0
-195 0 0 -265z"/>
<path d="M2265 748 c-43 -139 -80 -259 -83 -266 -3 -10 11 -12 63 -10 l68 3
16 50 16 50 70 0 70 0 14 -52 14 -53 78 0 c62 0 79 3 79 14 0 16 -146 491
-155 506 -4 6 -43 10 -89 10 l-82 0 -79 -252z m170 11 c16 -61 14 -69 -24 -69
-39 0 -41 5 -25 58 27 91 28 91 49 11z"/>
<path d="M3275 983 c-47 -24 -75 -54 -103 -108 -22 -43 -26 -63 -26 -141 -1
-82 2 -97 29 -150 23 -44 42 -66 79 -89 44 -27 58 -30 125 -30 116 1 185 45
213 137 15 50 5 58 -79 58 -54 0 -63 -3 -63 -18 0 -27 -37 -62 -65 -62 -33 0
-62 31 -71 75 -10 56 1 171 20 200 35 53 97 38 114 -29 l9 -31 64 3 c35 2 68
8 73 13 16 14 -13 87 -49 128 -20 21 -51 43 -73 49 -56 17 -161 14 -197 -5z"/>
<path d="M3670 734 l0 -266 173 4 c144 2 177 6 200 21 35 23 60 72 61 123 1
51 -17 85 -56 109 l-31 18 26 13 c55 30 61 144 10 196 -36 36 -103 48 -265 48
l-118 0 0 -266z m251 128 c40 -33 1 -72 -72 -72 -28 0 -29 2 -29 45 l0 45 39
0 c23 0 48 -8 62 -18z m13 -198 c22 -21 20 -51 -3 -64 -11 -5 -40 -10 -65 -10
l-46 0 0 45 0 45 49 0 c32 0 55 -6 65 -16z"/>
<path d="M4180 736 l0 -266 143 0 c174 1 224 10 254 44 28 33 45 94 37 135 -7
32 -39 74 -65 83 -11 4 -7 13 15 36 36 38 45 101 22 155 -24 57 -61 69 -248
75 l-158 5 0 -267z m244 134 c56 -21 15 -80 -56 -80 l-38 0 0 45 c0 45 0 45
34 45 19 0 46 -4 60 -10z m18 -207 c40 -36 9 -73 -63 -73 l-49 0 0 45 0 45 47
0 c29 0 53 -6 65 -17z"/>
<path d="M4807 993 c-3 -5 -35 -105 -71 -223 -37 -118 -73 -234 -81 -257 l-14
-43 68 0 68 0 15 53 15 52 68 3 c77 3 80 1 90 -65 l6 -43 85 0 c77 0 85 2 80
18 -3 9 -31 98 -62 197 -31 99 -65 208 -75 241 -14 47 -25 63 -42 68 -32 8
-145 7 -150 -1z m93 -232 c6 -28 9 -55 5 -61 -8 -13 -65 -13 -65 1 0 26 32
119 40 114 4 -3 13 -27 20 -54z"/>
<path d="M570 540 l0 -70 70 0 70 0 0 70 0 70 -70 0 -70 0 0 -70z"/>
<path d="M1320 540 l0 -70 75 0 75 0 0 70 0 70 -75 0 -75 0 0 -70z"/>
<path d="M2000 540 l0 -70 75 0 75 0 0 70 0 70 -75 0 -75 0 0 -70z"/>
<path d="M2750 540 l0 -70 70 0 70 0 0 70 0 70 -70 0 -70 0 0 -70z"/>
</g>
</svg>
