<?xml version="1.0" encoding="utf-8"?>
<!-- Generator: Adobe Illustrator 18.0.0, SVG Export Plug-In . SVG Version: 6.00 Build 0)  -->
<!DOCTYPE svg PUBLIC "-//W3C//DTD SVG 1.1//EN" "http://www.w3.org/Graphics/SVG/1.1/DTD/svg11.dtd">
<svg version="1.1" id="Layer_1" xmlns="http://www.w3.org/2000/svg" xmlns:xlink="http://www.w3.org/1999/xlink" x="0px" y="0px"
	 viewBox="0 0 960 960" enable-background="new 0 0 960 960" xml:space="preserve">
<path fill="#DC3545" d="M210,0c18,0,30,12,30,30v30h480V30c0-18,12-30,30-30s30,12,30,30v30h60c66,0,120,54,120,120v660
	c0,66-54,120-120,120H120C54,960,0,906,0,840V180C0,114,54,60,120,60h60V30C180,12,192,0,210,0z M60,240v600c0,36,24,60,60,60h720
	c36,0,60-24,60-60V240H60z"/>
</svg>
