<?xml version="1.0" standalone="no"?>
<!DOCTYPE svg PUBLIC "-//W3C//DTD SVG 20010904//EN"
 "http://www.w3.org/TR/2001/REC-SVG-20010904/DTD/svg10.dtd">
<svg version="1.0" xmlns="http://www.w3.org/2000/svg"
 width="514.000000pt" height="314.000000pt" viewBox="0 0 514.000000 314.000000"
 preserveAspectRatio="xMidYMid meet">

<g transform="translate(0.000000,314.000000) scale(0.100000,-0.100000)"
fill="#000000" stroke="none">
<path d="M2548 2823 c-23 -26 -48 -79 -48 -101 0 -11 9 -31 20 -45 11 -14 20
-32 20 -41 0 -9 -31 -36 -68 -60 -79 -51 -112 -86 -154 -169 -28 -57 -29 -62
-13 -73 10 -7 51 -19 92 -26 107 -18 68 -26 -124 -27 -90 -1 -163 -4 -163 -7
0 -16 219 -169 314 -220 110 -58 211 -83 371 -91 112 -6 124 -8 85 -16 -25 -4
-103 -6 -175 -4 -193 7 -266 35 -515 202 -162 108 -243 150 -375 194 -149 49
-300 74 -516 85 l-97 4 -90 -71 c-50 -40 -89 -73 -87 -75 2 -2 40 2 85 9 159
23 310 -4 461 -82 132 -69 245 -176 399 -380 231 -305 331 -402 465 -450 l50
-18 -41 -1 c-40 0 -42 -1 -48 -38 -3 -22 -15 -51 -27 -65 l-20 -27 34 0 c64 0
47 -14 -40 -31 -47 -10 -116 -33 -152 -51 l-66 -33 65 -6 c36 -4 209 -7 385
-7 176 0 349 3 385 7 l65 6 -74 37 c-40 21 -82 38 -93 38 -32 0 -56 18 -83 64
-15 26 -25 58 -25 82 0 38 2 41 63 76 34 20 91 64 126 99 65 65 69 74 224 399
64 135 157 197 255 170 89 -24 141 -100 142 -208 0 -109 -50 -172 -137 -172
-44 0 -94 28 -119 65 -9 14 -19 54 -22 90 -3 43 -9 65 -17 65 -15 0 -45 -59
-45 -89 0 -11 -20 -40 -45 -64 -31 -31 -45 -53 -45 -71 0 -26 0 -26 26 -10 24
16 29 16 132 -26 94 -37 113 -42 161 -37 76 8 136 48 175 117 29 51 31 62 31
150 0 172 -49 269 -169 330 -62 32 -77 35 -171 38 -71 3 -124 -1 -173 -12 -90
-20 -175 -20 -218 0 -25 12 -37 27 -50 62 -54 149 -107 221 -202 275 -56 31
-71 51 -56 72 47 63 46 61 29 101 -18 43 -52 84 -70 84 -7 0 -19 -8 -27 -17z"/>
<path d="M1137 2728 c-21 -47 -21 -72 -1 -132 26 -76 38 -45 27 71 l-9 98 -17
-37z"/>
<path d="M1084 2689 c-45 -56 -55 -124 -28 -187 9 -20 19 -62 23 -92 l7 -55
18 54 c19 55 19 77 -2 240 -6 43 -9 51 -18 40z"/>
<path d="M155 968 c-2 -7 -36 -116 -75 -243 -39 -126 -73 -236 -75 -242 -3
-10 13 -13 60 -13 l64 0 13 48 14 47 70 3 70 3 13 -51 13 -50 79 0 c43 0 79 1
79 3 0 1 -35 115 -78 252 l-78 250 -82 3 c-60 2 -83 -1 -87 -10z m100 -251 c6
-22 3 -27 -20 -33 -48 -12 -52 11 -18 106 6 16 26 -22 38 -73z"/>
<path d="M760 725 l0 -257 143 4 c121 3 148 7 182 25 75 39 114 102 122 193 9
91 -12 155 -66 210 -56 58 -82 66 -253 75 l-128 6 0 -256z m247 111 c25 -21
28 -32 31 -98 6 -111 -25 -158 -104 -158 l-24 0 0 140 0 140 34 0 c22 0 45 -9
63 -24z"/>
<path d="M1490 725 l0 -255 190 0 190 0 0 55 0 55 -115 0 -115 0 0 45 0 45 95
0 95 0 0 60 0 60 -95 0 -95 0 0 35 0 35 115 0 116 0 -3 58 -3 57 -187 3 -188
2 0 -255z"/>
<path d="M2256 971 c-7 -11 -156 -483 -156 -494 0 -4 28 -7 62 -5 l62 3 15 48
15 48 70 -3 71 -3 9 -47 9 -48 79 0 c51 0 78 4 78 11 0 9 -78 265 -141 467
l-11 32 -78 0 c-43 0 -81 -4 -84 -9z m83 -208 c18 -71 18 -78 -7 -81 -47 -7
-51 1 -34 62 8 31 19 56 23 56 5 0 13 -17 18 -37z"/>
<path d="M3149 961 c-43 -24 -86 -72 -107 -121 -20 -47 -19 -193 1 -241 52
-126 205 -176 329 -107 47 25 88 86 88 131 0 27 0 27 -70 27 -56 0 -70 -3 -70
-15 0 -21 -45 -65 -65 -65 -9 0 -27 11 -41 25 -25 25 -26 30 -22 129 3 113 18
146 64 146 25 0 64 -43 64 -71 0 -21 17 -23 94 -13 42 6 46 9 46 33 0 38 -53
117 -92 137 -51 27 -174 29 -219 5z"/>
<path d="M3530 726 l0 -258 168 4 c109 2 175 8 189 16 13 7 32 31 44 54 37 72
12 159 -52 180 -7 2 1 16 20 35 27 27 31 38 31 85 0 106 -38 126 -251 135
l-149 6 0 -257z m241 124 c10 -6 19 -19 19 -30 0 -25 -29 -40 -79 -40 l-41 0
0 40 0 40 41 0 c22 0 49 -5 60 -10z m10 -190 c10 -6 19 -21 19 -34 0 -28 -35
-46 -90 -46 l-40 0 0 45 0 45 46 0 c25 0 54 -5 65 -10z"/>
<path d="M4020 724 l0 -256 168 3 c187 4 206 10 236 72 26 55 21 113 -12 146
-15 15 -34 30 -42 33 -12 4 -9 10 12 27 54 43 56 141 5 190 -27 25 -134 41
-279 41 l-88 0 0 -256z m248 124 c34 -34 1 -68 -67 -68 l-41 0 0 40 0 40 48 0
c26 0 53 -5 60 -12z m4 -195 c22 -20 23 -31 1 -55 -11 -13 -30 -18 -65 -18
l-48 0 0 45 0 45 47 0 c29 0 53 -6 65 -17z"/>
<path d="M4626 971 c-8 -13 -156 -481 -156 -494 0 -4 28 -7 62 -5 l62 3 15 48
15 48 70 -3 71 -3 9 -47 9 -48 79 0 c56 0 78 4 78 13 0 15 -146 476 -153 483
-12 12 -154 16 -161 5z m83 -208 c18 -71 18 -78 -7 -81 -47 -7 -51 1 -34 62 8
31 19 56 23 56 5 0 13 -17 18 -37z"/>
<path d="M547 603 c-4 -3 -7 -35 -7 -70 l0 -63 75 0 75 0 0 70 0 70 -68 0
c-38 0 -72 -3 -75 -7z"/>
<path d="M1270 540 l0 -70 70 0 70 0 0 70 0 70 -70 0 -70 0 0 -70z"/>
<path d="M1920 540 l0 -70 75 0 76 0 -3 68 -3 67 -72 3 -73 3 0 -71z"/>
<path d="M2640 540 l0 -70 70 0 70 0 0 70 0 70 -70 0 -70 0 0 -70z"/>
<path d="M5000 540 l0 -70 70 0 70 0 0 70 0 70 -70 0 -70 0 0 -70z"/>
</g>
</svg>
