<?xml version="1.0" standalone="no"?>
<!DOCTYPE svg PUBLIC "-//W3C//DTD SVG 20010904//EN"
 "http://www.w3.org/TR/2001/REC-SVG-20010904/DTD/svg10.dtd">
<svg version="1.0" xmlns="http://www.w3.org/2000/svg"
 width="514.000000pt" height="314.000000pt" viewBox="0 0 514.000000 314.000000"
 preserveAspectRatio="xMidYMid meet">

<g transform="translate(0.000000,314.000000) scale(0.100000,-0.100000)"
fill="#000000" stroke="none">
<path d="M2813 2906 c-36 -30 -83 -122 -83 -161 0 -28 9 -45 53 -108 27 -38
12 -56 -100 -125 -104 -64 -144 -101 -188 -171 -40 -64 -95 -177 -95 -194 0
-20 41 -34 183 -62 65 -13 121 -26 125 -29 3 -3 -116 -6 -264 -7 -148 0 -287
-3 -309 -7 l-40 -8 122 -91 c324 -243 509 -339 732 -379 47 -9 176 -19 286
-22 l200 -7 -85 -15 c-117 -21 -377 -18 -494 4 -175 34 -317 104 -613 301
-300 201 -489 291 -763 360 -194 49 -464 82 -706 86 l-110 2 -142 -113 c-79
-62 -141 -114 -140 -116 2 -1 48 4 103 11 341 49 622 -14 900 -200 158 -107
297 -254 541 -573 182 -237 289 -365 385 -457 124 -119 211 -174 354 -222 l70
-24 -77 4 -77 4 -6 -31 c-14 -71 -38 -127 -62 -146 -14 -11 -23 -23 -19 -27 3
-3 36 -10 74 -13 37 -4 64 -8 60 -9 -3 0 -63 -12 -132 -26 -138 -28 -229 -60
-303 -108 l-48 -32 60 -6 c79 -9 1156 -11 1263 -2 77 6 81 7 67 23 -21 23
-159 87 -220 101 -75 18 -95 30 -131 79 -39 53 -64 119 -64 170 0 43 18 62
105 110 88 48 179 124 251 208 69 81 131 195 234 430 68 156 144 289 191 338
17 18 54 44 82 60 43 23 64 28 127 28 63 1 84 -4 132 -27 111 -54 171 -160
171 -302 1 -178 -78 -279 -218 -278 -140 1 -213 83 -224 250 -3 50 -9 94 -12
97 -23 23 -88 -78 -90 -138 -1 -47 -11 -65 -49 -84 -45 -22 -93 -98 -88 -142
l3 -32 27 21 c39 31 76 26 189 -24 183 -81 246 -91 363 -55 91 29 170 102 217
202 33 71 34 76 33 198 0 143 -17 225 -70 336 -55 116 -163 198 -315 240 -100
28 -295 25 -429 -6 -144 -33 -287 -34 -347 -2 -53 28 -67 49 -99 148 -56 173
-150 298 -280 373 -88 52 -124 80 -124 99 0 10 18 40 41 67 34 41 40 54 35 79
-15 72 -85 176 -119 176 -9 0 -28 -11 -44 -24z"/>
<path d="M563 2753 c-24 -62 -22 -143 5 -217 35 -97 42 -92 42 31 0 127 -9
233 -21 233 -4 0 -16 -21 -26 -47z"/>
<path d="M484 2695 c-39 -54 -65 -116 -71 -163 -4 -38 2 -68 32 -155 33 -94
36 -115 30 -163 -8 -70 6 -65 34 11 35 93 41 161 24 256 -8 46 -18 120 -22
164 l-6 80 -21 -30z"/>
</g>
</svg>
