<?xml version="1.0" encoding="utf-8"?>
<!-- Generator: Adobe Illustrator 18.0.0, SVG Export Plug-In . SVG Version: 6.00 Build 0)  -->
<!DOCTYPE svg PUBLIC "-//W3C//DTD SVG 1.1//EN" "http://www.w3.org/Graphics/SVG/1.1/DTD/svg11.dtd">
<svg version="1.1" id="Layer_1" xmlns="http://www.w3.org/2000/svg" xmlns:xlink="http://www.w3.org/1999/xlink" x="0px" y="0px"
	 viewBox="0 0 514 314" enable-background="new 0 0 514 314" xml:space="preserve">
<g transform="translate(0.000000,314.000000) scale(0.100000,-0.100000)">
	<g>
		<path fill="#0D6EFD" d="M2548,2823c-23-26-48-79-48-101c0-11,9-31,20-45s20-32,20-41s-31-36-68-60c-79-51-112-86-154-169
			c-28-57-29-62-13-73c10-7,51-19,92-26c107-18,68-26-124-27c-90-1-163-4-163-7c0-16,219-169,314-220c110-58,211-83,371-91
			c112-6,124-8,85-16c-25-4-103-6-175-4c-193,7-266,35-515,202c-162,108-243,150-375,194c-149,49-300,74-516,85l-97,4l-90-71
			c-50-40-89-73-87-75s40,2,85,9c159,23,310-4,461-82c132-69,245-176,399-380c231-305,331-402,465-450l50-18l-41-1c-40,0-42-1-48-38
			c-3-22-15-51-27-65l-20-27h34c64,0,47-14-40-31c-47-10-116-33-152-51l-66-33l65-6c36-4,209-7,385-7s349,3,385,7l65,6l-74,37
			c-40,21-82,38-93,38c-32,0-56,18-83,64c-15,26-25,58-25,82c0,38,2,41,63,76c34,20,91,64,126,99c65,65,69,74,224,399
			c64,135,157,197,255,170c89-24,141-100,142-208c0-109-50-172-137-172c-44,0-94,28-119,65c-9,14-19,54-22,90c-3,43-9,65-17,65
			c-15,0-45-59-45-89c0-11-20-40-45-64c-31-31-45-53-45-71c0-26,0-26,26-10c24,16,29,16,132-26c94-37,113-42,161-37
			c76,8,136,48,175,117c29,51,31,62,31,150c0,172-49,269-169,330c-62,32-77,35-171,38c-71,3-124-1-173-12c-90-20-175-20-218,0
			c-25,12-37,27-50,62c-54,149-107,221-202,275c-56,31-71,51-56,72c47,63,46,61,29,101c-18,43-52,84-70,84
			C2568,2840,2556,2832,2548,2823z"/>
		<path fill="#0D6EFD" d="M1137,2728c-21-47-21-72-1-132c26-76,38-45,27,71l-9,98L1137,2728z"/>
		<path fill="#0D6EFD" d="M1084,2689c-45-56-55-124-28-187c9-20,19-62,23-92l7-55l18,54c19,55,19,77-2,240
			C1096,2692,1093,2700,1084,2689z"/>
		<path fill="#0D6EFD" d="M155,968c-2-7-36-116-75-243C41,599,7,489,5,483c-3-10,13-13,60-13h64l13,48l14,47l70,3l70,3l13-51l13-50
			h79c43,0,79,1,79,3c0,1-35,115-78,252l-78,250l-82,3C182,980,159,977,155,968z M255,717c6-22,3-27-20-33c-48-12-52,11-18,106
			C223,806,243,768,255,717z"/>
		<path fill="#0D6EFD" d="M760,725V468l143,4c121,3,148,7,182,25c75,39,114,102,122,193c9,91-12,155-66,210c-56,58-82,66-253,75
			l-128,6V725z M1007,836c25-21,28-32,31-98c6-111-25-158-104-158h-24v140v140h34C966,860,989,851,1007,836z"/>
		<path fill="#0D6EFD" d="M1490,725V470h190h190v55v55h-115h-115v45v45h95h95v60v60h-95h-95v35v35h115h116l-3,58l-3,57l-187,3
			l-188,2V725z"/>
		<path fill="#0D6EFD" d="M2256,971c-7-11-156-483-156-494c0-4,28-7,62-5l62,3l15,48l15,48l70-3l71-3l9-47l9-48h79c51,0,78,4,78,11
			c0,9-78,265-141,467l-11,32h-78C2297,980,2259,976,2256,971z M2339,763c18-71,18-78-7-81c-47-7-51,1-34,62c8,31,19,56,23,56
			C2326,800,2334,783,2339,763z"/>
		<path fill="#0D6EFD" d="M3149,961c-43-24-86-72-107-121c-20-47-19-193,1-241c52-126,205-176,329-107c47,25,88,86,88,131
			c0,27,0,27-70,27c-56,0-70-3-70-15c0-21-45-65-65-65c-9,0-27,11-41,25c-25,25-26,30-22,129c3,113,18,146,64,146c25,0,64-43,64-71
			c0-21,17-23,94-13c42,6,46,9,46,33c0,38-53,117-92,137C3317,983,3194,985,3149,961z"/>
		<path fill="#0D6EFD" d="M3530,726V468l168,4c109,2,175,8,189,16c13,7,32,31,44,54c37,72,12,159-52,180c-7,2,1,16,20,35
			c27,27,31,38,31,85c0,106-38,126-251,135l-149,6V726z M3771,850c10-6,19-19,19-30c0-25-29-40-79-40h-41v40v40h41
			C3733,860,3760,855,3771,850z M3781,660c10-6,19-21,19-34c0-28-35-46-90-46h-40v45v45h46C3741,670,3770,665,3781,660z"/>
		<path fill="#0D6EFD" d="M4020,724V468l168,3c187,4,206,10,236,72c26,55,21,113-12,146c-15,15-34,30-42,33c-12,4-9,10,12,27
			c54,43,56,141,5,190c-27,25-134,41-279,41h-88V724z M4268,848c34-34,1-68-67-68h-41v40v40h48C4234,860,4261,855,4268,848z
			 M4272,653c22-20,23-31,1-55c-11-13-30-18-65-18h-48v45v45h47C4236,670,4260,664,4272,653z"/>
		<path fill="#0D6EFD" d="M4626,971c-8-13-156-481-156-494c0-4,28-7,62-5l62,3l15,48l15,48l70-3l71-3l9-47l9-48h79c56,0,78,4,78,13
			c0,15-146,476-153,483C4775,978,4633,982,4626,971z M4709,763c18-71,18-78-7-81c-47-7-51,1-34,62c8,31,19,56,23,56
			C4696,800,4704,783,4709,763z"/>
		<path fill="#0D6EFD" d="M547,603c-4-3-7-35-7-70v-63h75h75v70v70h-68C584,610,550,607,547,603z"/>
		<path fill="#0D6EFD" d="M1270,540v-70h70h70v70v70h-70h-70V540z"/>
		<path fill="#0D6EFD" d="M1920,540v-70h75h76l-3,68l-3,67l-72,3l-73,3V540z"/>
		<path fill="#0D6EFD" d="M2640,540v-70h70h70v70v70h-70h-70V540z"/>
		<path fill="#0D6EFD" d="M5000,540v-70h70h70v70v70h-70h-70V540z"/>
	</g>
</g>
</svg>
