<?xml version="1.0" encoding="utf-8"?>
<!-- Generator: Adobe Illustrator 18.0.0, SVG Export Plug-In . SVG Version: 6.00 Build 0)  -->
<!DOCTYPE svg PUBLIC "-//W3C//DTD SVG 1.1//EN" "http://www.w3.org/Graphics/SVG/1.1/DTD/svg11.dtd">
<svg version="1.1" id="Layer_1" xmlns="http://www.w3.org/2000/svg" xmlns:xlink="http://www.w3.org/1999/xlink" x="0px" y="0px"
	 viewBox="0 350 960 210" enable-background="new 0 350 960 210" xml:space="preserve">
<g>
	<g>
		<path fill="#0D6EFD" d="M160.3,374.4c-2.2,2.5-4.7,7.4-4.7,9.6c0,1,0.8,3,1.9,4.2c1,1.3,1.9,3,1.9,3.9c0,0.8-3,3.4-6.4,5.7
			c-7.4,4.9-10.6,8.3-14.7,16.2c-2.7,5.6-2.7,5.9-1.3,7.1c0.8,0.7,4.9,1.9,8.8,2.5c10.2,1.7,6.4,2.5-11.9,2.5
			c-8.5,0-15.5,0.5-15.5,0.7c0,1.5,20.8,16.2,29.9,21.1c10.5,5.6,20.1,7.9,35.3,8.8c10.6,0.7,11.9,0.8,8.1,1.5
			c-2.4,0.5-9.8,0.7-16.6,0.5c-18.3-0.7-25.3-3.4-49-19.3c-15.5-10.2-23.2-14.2-35.7-18.4c-14.2-4.7-28.4-7.1-49-8.1l-9.1-0.5
			l-8.5,6.8c-4.7,3.9-8.5,7.1-8.3,7.3c0.2,0.2,3.9-0.2,8.1-0.8c15.1-2.2,29.6,0.5,44,7.9c12.5,6.6,23.3,16.8,38,36.2
			c22.1,29.1,31.4,38.2,44.2,42.9l4.7,1.7h-3.9c-3.9,0-4,0-4.7,3.6c-0.2,2.2-1.5,4.9-2.5,6.1l-1.9,2.5h3.2c6.1,0,4.4,1.3-3.9,3
			c-4.4,0.8-11,3.2-14.5,4.9l-6.4,3.2l6.1,0.7c3.4,0.5,20,0.7,36.8,0.7s33.1-0.2,36.8-0.7l6.1-0.7l-7.1-3.6
			c-3.9-1.9-7.9-3.6-8.9-3.6c-3,0-5.3-1.7-7.9-6.1c-1.5-2.5-2.4-5.6-2.4-7.9c0-3.6,0.2-3.9,5.9-7.3c3.2-1.9,8.8-6.1,11.9-9.3
			c6.1-6.1,6.6-7.1,21.3-38c6.1-12.7,14.9-18.7,24.2-16.2c8.5,2.4,13.4,9.6,13.7,19.8c0,10.5-4.7,16.4-13,16.4
			c-4.2,0-8.9-2.7-11.3-6.1c-0.8-1.3-1.9-5.1-2.2-8.5c-0.2-4-0.8-6.1-1.7-6.1c-1.5,0-4.2,5.6-4.2,8.5c0,1-1.9,3.9-4.2,6.1
			c-3,3-4.2,5.1-4.2,6.8c0,2.5,0,2.5,2.5,0.8c2.4-1.5,2.7-1.5,12.5,2.5c8.9,3.6,10.8,4,15.2,3.6c7.3-0.8,13-4.7,16.6-11
			c2.7-4.9,3-5.9,3-14.2c0-16.4-4.7-25.7-16.2-31.4c-5.9-3-7.4-3.4-16.4-3.6c-6.8-0.2-11.9,0-16.6,1c-8.5,1.9-16.6,1.9-20.8,0
			c-2.4-1-3.6-2.5-4.7-5.9c-5.1-14.2-10.2-21.1-19.3-26.2c-5.3-3-6.8-4.9-5.3-6.8c4.4-5.9,4.4-5.7,2.7-9.6c-1.7-4-4.9-8.1-6.6-8.1
			C162.1,372.8,161,373.5,160.3,374.4z"/>
		<path fill="#0D6EFD" d="M25.8,383.5c-1.9,4.4-1.9,6.8,0,12.5c2.5,7.3,3.6,4.2,2.5-6.8l-0.8-9.3L25.8,383.5z"/>
		<path fill="#0D6EFD" d="M20.7,387.2c-4.2,5.3-5.3,11.9-2.7,17.9c0.8,1.9,1.9,5.9,2.2,8.8l0.7,5.3l1.7-5.1c1.9-5.3,1.9-7.4-0.2-23
			C22,387,21.5,386.3,20.7,387.2z"/>
	</g>
</g>
<g>
	<g>
		<path fill="#0D6EFD" d="M318.2,437.7c-0.5,1.5-7.4,23.6-15.2,49.2c-7.9,25.5-14.7,47.7-15.2,48.9c-0.7,2,2.5,2.5,12.2,2.5h13
			l2.5-9.8l2.8-9.4l14.2-0.7l14.2-0.7l2.5,10.2l2.5,10.1h16c8.6,0,16-0.1,16-0.7c0-0.1-7.1-23.2-15.8-51.1l-15.8-50.5l-16.6-0.7
			C323.5,435.2,319,435.9,318.2,437.7z M338.3,488.3c1.3,4.4,0.7,5.5-4,6.7c-9.8,2.4-10.6-2.3-3.6-21.4
			C331.8,470.5,335.9,478.1,338.3,488.3z"/>
		<path fill="#0D6EFD" d="M397.8,486.4v52l29-0.8c24.5-0.7,29.9-1.5,36.8-5.1c15.2-7.9,23-20.6,24.7-39c1.7-18.4-2.4-31.4-13.3-42.6
			c-11.4-11.7-16.6-13.3-51.2-15.2l-25.9-1.3V486.4z M447.8,463.9c5.1,4.3,5.6,6.4,6.3,19.8c1.3,22.4-5.1,32-20.9,32h-4.8v-28.3V459
			h6.8C439.4,459.1,444.3,460.8,447.8,463.9z"/>
		<path fill="#0D6EFD" d="M512.2,486.8v51.6h38.3h38.3v-11.2V516h-23.1h-23.2v-9.1v-9.1h19.2h19.2v-12.2v-12.3h-19.2h-19.2v-7.1
			v-7.1h23.2h23.3l-0.7-11.7l-0.7-11.5l-37.8-0.7l-38.1-0.5v51.9H512.2z"/>
		<path fill="#0D6EFD" d="M642.2,437c-1.5,2.3-31.5,97.8-31.5,100c0,0.8,5.6,1.5,12.5,0.9l12.5-0.7l3.1-9.8l3.1-9.8l14.2,0.7
			l14.5,0.7l1.7,9.4l1.7,9.8h15.9c10.2,0,15.8-0.8,15.8-2.3c0-1.7-15.8-53.6-28.4-94.5l-2.3-6.4h-15.8
			C650.5,435.2,642.8,436,642.2,437z M659,479.1c3.6,14.5,3.6,15.8-1.5,16.3c-9.4,1.5-10.2-0.1-6.8-12.5c1.6-6.3,3.9-11.4,4.7-11.4
			C656.4,471.6,658,475.1,659,479.1z"/>
	</g>
</g>
<g>
	<g>
		<path fill="#0D6EFD" d="M743.4,487.7c-4.2,2.4-8.8,7.3-10.8,12.3c-2.2,4.7-1.9,19.6,0,24.5c5.3,12.7,20.6,17.9,33.1,10.8
			c4.7-2.5,8.9-8.8,8.9-13.2c0-2.7,0-2.7-7.1-2.7c-5.7,0-7.1,0.2-7.1,1.5c0,2.2-4.4,6.6-6.6,6.6c-0.8,0-2.7-1-4-2.5
			c-2.5-2.5-2.5-3-2.2-13c0.2-11.5,1.9-14.7,6.4-14.7c2.5,0,6.4,4.2,6.4,7.3c0,2.2,1.7,2.4,9.6,1.3c4.2-0.7,4.7-0.8,4.7-3.4
			c0-3.9-5.3-11.9-9.3-13.8C760.4,485.6,747.9,485.4,743.4,487.7z"/>
		<path fill="#0D6EFD" d="M781.9,511.4v25.9l17-0.5c11-0.2,17.6-0.8,19.1-1.7c1.3-0.7,3.2-3.2,4.4-5.6c3.9-7.3,1.3-16.2-5.3-18.3
			c-0.7-0.2,0-1.7,2.2-3.6c2.7-2.7,3.2-3.9,3.2-8.5c0-10.6-3.9-12.7-25.3-13.7l-15.1-0.7v26.4h-0.1V511.4z M806.3,498.9
			c1,0.7,1.9,1.9,1.9,3c0,2.5-3,4-8.1,4h-4v-4v-4h4C802.5,497.9,805,498.4,806.3,498.9z M807.2,518c1,0.7,1.9,2.2,1.9,3.4
			c0,2.7-3.6,4.7-9.1,4.7h-4v-4.4v-4.4h4.7C803.1,517,806.1,517.7,807.2,518z"/>
		<path fill="#0D6EFD" d="M831.4,511.7v25.7l17-0.2c18.9-0.5,20.8-1,23.8-7.3c2.5-5.6,2.2-11.5-1.3-14.7c-1.5-1.5-3.4-3-4.2-3.4
			c-1.3-0.5-0.8-1,1.3-2.7c5.6-4.2,5.7-14.2,0.5-19.1c-2.7-2.5-13.7-4-28.2-4h-8.9v25.7L831.4,511.7L831.4,511.7z M856.4,499.2
			c3.4,3.4,0,6.8-6.8,6.8h-4v-4v-4h4.9C853,497.9,855.9,498.4,856.4,499.2z M856.9,518.7c2.2,2.2,2.4,3.2,0,5.6
			c-1,1.3-3,1.9-6.6,1.9h-4.9v-4.4v-4.4h4.7C853.3,517,855.7,517.7,856.9,518.7z"/>
		<path fill="#0D6EFD" d="M892.6,486.6c-0.8,1.3-15.7,48.7-15.7,50c0,0.5,2.7,0.7,6.1,0.5l6.1-0.2l1.5-4.9l1.5-4.9l7.1,0.2l7.3,0.2
			l0.8,4.7l0.8,4.9h8.1c5.7,0,7.9-0.5,7.9-1.3c0-1.5-14.7-48-15.5-48.9C907.8,486,893.2,485.6,892.6,486.6z M900.9,507.7
			c1.9,7.3,1.9,7.9-0.7,8.1c-4.7,0.7-5.1,0-3.4-6.1c0.8-3.2,1.9-5.7,2.4-5.7C899.6,503.8,900.5,505.8,900.9,507.7z"/>
		<path fill="#0D6EFD" d="M930.4,530.2v7.1h7.1h7.1v-7.1v-7.1h-7.1h-7.1V530.2z"/>
	</g>
</g>
</svg>
